<?xml version="1.0" encoding="utf-8"?>
<!-- Generator: Adobe Illustrator 19.0.0, SVG Export Plug-In . SVG Version: 6.00 Build 0)  -->
<svg version="1.1" id="Layer_1" xmlns="http://www.w3.org/2000/svg" xmlns:xlink="http://www.w3.org/1999/xlink" x="0px" y="0px"
	 viewBox="0 0 500 500" style="enable-background:new 0 0 500 500;" xml:space="preserve">
<style type="text/css">
	.st0{fill:#272525;}
	.st1{fill:#8DC220;}
	.st2{fill:#44BFEF;}
	.st3{fill:#00AC71;}
	.st4{fill:#F9BC00;}
	.st5{filter:url(#Adobe_OpacityMaskFilter);}
	.st6{filter:url(#Adobe_OpacityMaskFilter_1_);}
	.st7{mask:url(#SVGID_1_);fill:url(#SVGID_2_);}
	.st8{fill:url(#SVGID_3_);}
	.st9{filter:url(#Adobe_OpacityMaskFilter_2_);}
	.st10{filter:url(#Adobe_OpacityMaskFilter_3_);}
	.st11{mask:url(#SVGID_4_);fill:url(#SVGID_5_);}
	.st12{fill:url(#SVGID_6_);}
	.st13{filter:url(#Adobe_OpacityMaskFilter_4_);}
	.st14{filter:url(#Adobe_OpacityMaskFilter_5_);}
	.st15{mask:url(#SVGID_7_);fill:url(#SVGID_8_);}
	.st16{fill:url(#SVGID_9_);}
	.st17{fill:#DF1B1C;}
	.st18{filter:url(#Adobe_OpacityMaskFilter_6_);}
	.st19{filter:url(#Adobe_OpacityMaskFilter_7_);}
	.st20{mask:url(#SVGID_10_);fill:url(#SVGID_11_);}
	.st21{fill:url(#SVGID_12_);}
	.st22{filter:url(#Adobe_OpacityMaskFilter_8_);}
	.st23{filter:url(#Adobe_OpacityMaskFilter_9_);}
	.st24{mask:url(#SVGID_13_);fill:url(#SVGID_14_);}
	.st25{fill:url(#SVGID_15_);}
	.st26{filter:url(#Adobe_OpacityMaskFilter_10_);}
	.st27{filter:url(#Adobe_OpacityMaskFilter_11_);}
	.st28{mask:url(#SVGID_16_);fill:url(#SVGID_17_);}
	.st29{fill:url(#SVGID_18_);}
	.st30{filter:url(#Adobe_OpacityMaskFilter_12_);}
	.st31{filter:url(#Adobe_OpacityMaskFilter_13_);}
	.st32{mask:url(#SVGID_19_);fill:url(#SVGID_20_);}
	.st33{fill:url(#SVGID_21_);}
	.st34{filter:url(#Adobe_OpacityMaskFilter_14_);}
	.st35{filter:url(#Adobe_OpacityMaskFilter_15_);}
	.st36{mask:url(#SVGID_22_);fill:url(#SVGID_23_);}
	.st37{fill:url(#SVGID_24_);}
	.st38{filter:url(#Adobe_OpacityMaskFilter_16_);}
	.st39{filter:url(#Adobe_OpacityMaskFilter_17_);}
	.st40{mask:url(#SVGID_25_);fill:url(#SVGID_26_);}
	.st41{fill:url(#SVGID_27_);}
	.st42{filter:url(#Adobe_OpacityMaskFilter_18_);}
	.st43{filter:url(#Adobe_OpacityMaskFilter_19_);}
	.st44{mask:url(#SVGID_28_);fill:url(#SVGID_29_);}
	.st45{fill:url(#SVGID_30_);}
</style>
<g id="XMLID_1_">
	<path class="st0" d="M182.8,348.5c-1.7-2.3-4-4.1-6.8-5.4c-2.9-1.3-6.6-2-11.1-2c-1.7,0-3.6,0.1-5.3,0.6c-1.7,0.4-3.4,0.9-5,1.4
		c-1.6,0.6-3,1.1-4.3,1.9c-1.3,0.7-2.3,1.3-3.1,1.9c-1.7-1.7-3.8-3.1-6.4-4.1c-2.6-1-5.8-1.6-9.8-1.6c-4.7,0-9.1,0.3-13.3,1
		c-4.1,0.7-7.6,1.4-10.1,2.1v56H121v-46.8c0.9-0.1,2.3-0.3,4-0.6c1.7-0.3,3.4-0.3,4.8-0.3c4.1,0,7,1.3,8.4,4
		c1.6,2.7,2.3,7.1,2.3,13.1v30.5h13.4v-32.1c0-2.4-0.1-4.6-0.3-6.7c-0.3-2.1-0.6-4-1.3-5.8c1-0.7,2.4-1.3,4.3-2s4-1,6.1-1
		c4.3,0,7,1.3,8.6,4c1.4,2.7,2.3,7.1,2.3,13.1v30.5h13.7v-32.5c0-3.8-0.3-7.6-1-10.8C185.7,353.6,184.6,350.8,182.8,348.5z
		 M234.9,347.2c-1.9-2-4.3-3.6-7.3-4.7c-3-1.1-6.6-1.6-11-1.7h-0.3c-3.7,0-7.1,0.3-10.4,0.9c-3.3,0.6-5.7,1.1-7.4,1.7l1.7,10.8
		c1.6-0.6,3.7-1.1,6.3-1.6c2.6-0.4,5.4-0.7,8.6-0.7h1.6c1.6,0.1,3,0.4,4.1,0.9c1.6,0.6,2.7,1.4,3.7,2.4c0.9,1.1,1.6,2.3,2,3.7
		c0.4,1.4,0.6,2.9,0.6,4.4v2.3c-1.9-0.4-3.6-0.7-5.3-1c-1.6-0.1-3.1-0.3-4.7-0.3h-0.4c-3,0-6,0.3-8.7,1c-2.9,0.6-5.4,1.7-7.7,3.1
		c-2.3,1.4-4,3.3-5.3,5.6c-1.3,2.3-2,5.1-2,8.4c0,3.4,0.6,6.4,1.7,8.7c1.1,2.4,2.7,4.3,4.7,5.7c2,1.4,4.4,2.6,7.4,3.3
		c2.9,0.7,6,1,9.6,1h0.3c5.1,0,9.7-0.3,13.8-1c4.1-0.6,7.3-1.1,9.4-1.6v-35.1c0-3.4-0.4-6.6-1.1-9.4
		C238,351.6,236.7,349.2,234.9,347.2z M227,390.3c-2.1,0.4-5.3,0.7-9.4,0.7h-0.9c-3-0.1-5.4-0.7-7.3-1.9c-2-1.3-3-3.4-3-6.6
		c0-1.6,0.4-3,1.1-4c0.7-1.1,1.7-1.9,3-2.4c1.3-0.6,2.6-1,4.1-1.3c0.7-0.1,1.4-0.1,2.1-0.3c0.9,0,1.6-0.1,2.4-0.1
		c1.7,0,3.3,0.1,4.7,0.3c1.4,0.3,2.4,0.4,3.3,0.7v14.8H227z M279.1,341.8c-1.1-0.1-2.4-0.3-3.6-0.4c-1.1-0.1-2.3-0.1-3.1-0.1
		c-4.7,0-9,0.4-13,1.3c-3.8,0.9-7.1,1.7-9.7,2.7v55.2h13.4v-46.5c0.7-0.3,1.9-0.4,3.4-0.7c1.7-0.3,3.3-0.4,4.7-0.4
		c2.6,0,4.8,0.1,6.8,0.6c2,0.4,3.4,0.9,4.6,1.1l2.3-11.3c-0.7-0.3-1.6-0.4-2.7-0.7C281.5,342.1,280.4,341.9,279.1,341.8z M328,383.3
		c-2.3-3-4.7-5.7-7.1-8.4c-2.4-2.6-4.7-4.8-7-6.7c4.1-4.3,8.3-8.6,12.3-13c4.1-4.4,8-8.7,11.7-12.8H322c-1.1,1.4-2.6,3-4.3,5
		c-1.7,1.9-3.4,3.8-5.3,5.8c-1.9,2-3.7,4-5.7,6.1c-1.9,2-3.7,4-5.4,5.7v-50.8l-13.4,2.3v83.7h13.4v-26.5c2,1.4,4,3.3,6.1,5.4
		c2.1,2.1,4.1,4.3,6.1,6.7c2,2.4,3.8,4.8,5.6,7.3c1.7,2.6,3.3,4.8,4.6,7.3h15.5c-1.3-2.6-3-5.3-5-8.3
		C332.4,389.1,330.3,386.1,328,383.3z M390.2,358.8c-1.4-3.7-3.3-7-5.7-9.6c-2.4-2.7-5.4-4.7-8.8-6.1c-3.4-1.4-7.1-2.1-11.3-2.1
		c-4,0-7.8,0.7-11.1,2.1c-3.4,1.4-6.3,3.4-8.8,6.1c-2.4,2.7-4.4,5.8-5.7,9.6c-1.4,3.7-2,7.8-2,12.4s0.7,8.7,2,12.5
		c1.4,3.7,3.3,7,5.7,9.7c2.4,2.7,5.4,4.7,8.7,6.3c3.4,1.4,7.1,2.3,11.3,2.3c4.1,0,8-0.7,11.4-2.3c3.4-1.4,6.4-3.6,8.8-6.3
		c2.4-2.7,4.3-5.8,5.7-9.7c1.3-3.7,2-8,2-12.5S391.6,362.5,390.2,358.8z M374.8,385.1c-2.4,3.4-6,5.1-10.4,5.1
		c-4.4,0-7.8-1.7-10.4-5.1c-2.4-3.4-3.7-8-3.7-13.8c0-5.7,1.3-10.3,3.7-13.7c2.4-3.4,6-5,10.4-5c4.4,0,7.8,1.7,10.4,5
		c2.4,3.4,3.7,8,3.7,13.7C378.5,377.1,377.2,381.7,374.8,385.1z"/>
	<path class="st1" d="M250.1,97.5h51.5c-19,31.1-39.9,65.3-60.9,99.4h-51.5C210.2,162.8,231.2,128.6,250.1,97.5z"/>
	<path class="st2" d="M128.4,97.5h51.5c-10.1,16.5-20.4,33.2-30.5,49.8c-10.1,16.5-20.2,33.1-30.4,49.6
		c10.1,16.5,20.2,33.2,30.4,49.8c10.1,16.5,20.2,33.1,30.5,49.6h-51.5c-10.1-16.5-20.4-33.1-30.5-49.6
		c-10.1-16.4-20.2-33.1-30.4-49.6c10.1-16.5,20.2-33.1,30.4-49.6C108,130.8,118.3,114.2,128.4,97.5z"/>
	<path class="st3" d="M128.4,97.5L128.4,97.5c21,34.2,41.9,68.4,60.9,99.4h51.5c-19-30.9-39.9-65.2-60.9-99.4l0,0H128.4z"/>
	<path class="st4" d="M301.6,97.5h-51.5c10.1,16.5,20.2,33.2,30.5,49.8c10.1,16.5,20.2,33.1,30.5,49.6
		c-10.1,16.5-20.4,33.2-30.5,49.8c-10.1,16.5-20.2,33.1-30.5,49.6h51.5c10.1-16.5,20.2-33.1,30.5-49.6
		c10.1-16.5,20.2-33.1,30.5-49.8c-10.3-16.5-20.4-33.1-30.5-49.6C322,130.8,311.7,114.2,301.6,97.5z"/>
	<defs>
		<filter id="Adobe_OpacityMaskFilter" filterUnits="userSpaceOnUse" x="189.4" y="132.6" width="91" height="64.4">
			<feFlood  style="flood-color:white;flood-opacity:1" result="back"/>
			<feBlend  in="SourceGraphic" in2="back" mode="normal"/>
		</filter>
	</defs>
	<mask maskUnits="userSpaceOnUse" x="189.4" y="132.6" width="91" height="64.4" id="SVGID_1_">
		<g id="XMLID_11_" class="st5">
			<defs>
				<filter id="Adobe_OpacityMaskFilter_1_" filterUnits="userSpaceOnUse" x="189.4" y="132.6" width="91" height="64.4">
					<feFlood  style="flood-color:white;flood-opacity:1" result="back"/>
					<feBlend  in="SourceGraphic" in2="back" mode="normal"/>
				</filter>
			</defs>
			<mask maskUnits="userSpaceOnUse" x="189.4" y="132.6" width="91" height="64.4" id="SVGID_1_">
				<g id="XMLID_14_" class="st6">
				</g>
			</mask>
			
				<linearGradient id="SVGID_2_" gradientUnits="userSpaceOnUse" x1="-695.5453" y1="780.7914" x2="-695.5453" y2="782.2172" gradientTransform="matrix(63.8 0 0 -45.2 44610.6797 35488.8398)">
				<stop  offset="0" style="stop-color:#FFFFFF"/>
				<stop  offset="1" style="stop-color:#000000"/>
			</linearGradient>
			<path class="st7" d="M280.4,132.6h-51.5c-6.6,10.7-13.1,21.5-19.7,32.2c-6.6,10.7-13.1,21.5-19.8,32.2h51.5
				c6.6-10.7,13.3-21.5,19.8-32.2C267.1,154,273.7,143.3,280.4,132.6z"/>
		</g>
	</mask>
	
		<linearGradient id="SVGID_3_" gradientUnits="userSpaceOnUse" x1="-695.5453" y1="780.7914" x2="-695.5453" y2="782.2172" gradientTransform="matrix(63.8 0 0 -45.2 44610.6797 35488.8398)">
		<stop  offset="0" style="stop-color:#8AC23E"/>
		<stop  offset="1" style="stop-color:#8AC23E"/>
	</linearGradient>
	<path class="st8" d="M280.4,132.6h-51.5c-6.6,10.7-13.1,21.5-19.7,32.2c-6.6,10.7-13.1,21.5-19.8,32.2h51.5
		c6.6-10.7,13.3-21.5,19.8-32.2C267.1,154,273.7,143.3,280.4,132.6z"/>
	<defs>
		<filter id="Adobe_OpacityMaskFilter_2_" filterUnits="userSpaceOnUse" x="210.8" y="97.5" width="90.8" height="64.4">
			<feFlood  style="flood-color:white;flood-opacity:1" result="back"/>
			<feBlend  in="SourceGraphic" in2="back" mode="normal"/>
		</filter>
	</defs>
	<mask maskUnits="userSpaceOnUse" x="210.8" y="97.5" width="90.8" height="64.4" id="SVGID_4_">
		<g id="XMLID_12_" class="st9">
			<defs>
				<filter id="Adobe_OpacityMaskFilter_3_" filterUnits="userSpaceOnUse" x="210.8" y="97.5" width="90.8" height="64.4">
					<feFlood  style="flood-color:white;flood-opacity:1" result="back"/>
					<feBlend  in="SourceGraphic" in2="back" mode="normal"/>
				</filter>
			</defs>
			<mask maskUnits="userSpaceOnUse" x="210.8" y="97.5" width="90.8" height="64.4" id="SVGID_4_">
				<g id="XMLID_16_" class="st10">
				</g>
			</mask>
			
				<linearGradient id="SVGID_5_" gradientUnits="userSpaceOnUse" x1="-695.4257" y1="782.4482" x2="-695.4257" y2="781.0224" gradientTransform="matrix(63.7 0 0 -45.2 44554.8203 35464.207)">
				<stop  offset="0" style="stop-color:#FFFFFF"/>
				<stop  offset="1" style="stop-color:#000000"/>
			</linearGradient>
			<path class="st11" d="M210.8,162h51.5c6.6-10.7,13.1-21.5,19.7-32.2c6.6-10.7,13.1-21.5,19.7-32.2h-51.5
				c-6.6,10.7-13.1,21.5-19.7,32.2C223.9,140.6,217.3,151.3,210.8,162z"/>
		</g>
	</mask>
	
		<linearGradient id="SVGID_6_" gradientUnits="userSpaceOnUse" x1="-695.4257" y1="782.4482" x2="-695.4257" y2="781.0224" gradientTransform="matrix(63.7 0 0 -45.2 44554.8203 35464.207)">
		<stop  offset="0" style="stop-color:#698932"/>
		<stop  offset="1" style="stop-color:#698932"/>
	</linearGradient>
	<path class="st12" d="M210.8,162h51.5c6.6-10.7,13.1-21.5,19.7-32.2c6.6-10.7,13.1-21.5,19.7-32.2h-51.5
		c-6.6,10.7-13.1,21.5-19.7,32.2C223.9,140.6,217.3,151.3,210.8,162z"/>
	<defs>
		<filter id="Adobe_OpacityMaskFilter_4_" filterUnits="userSpaceOnUse" x="250.1" y="97.5" width="91" height="64.4">
			<feFlood  style="flood-color:white;flood-opacity:1" result="back"/>
			<feBlend  in="SourceGraphic" in2="back" mode="normal"/>
		</filter>
	</defs>
	<mask maskUnits="userSpaceOnUse" x="250.1" y="97.5" width="91" height="64.4" id="SVGID_7_">
		<g id="XMLID_13_" class="st13">
			<defs>
				<filter id="Adobe_OpacityMaskFilter_5_" filterUnits="userSpaceOnUse" x="250.1" y="97.5" width="91" height="64.4">
					<feFlood  style="flood-color:white;flood-opacity:1" result="back"/>
					<feBlend  in="SourceGraphic" in2="back" mode="normal"/>
				</filter>
			</defs>
			<mask maskUnits="userSpaceOnUse" x="250.1" y="97.5" width="91" height="64.4" id="SVGID_7_">
				<g id="XMLID_18_" class="st14">
				</g>
			</mask>
			
				<linearGradient id="SVGID_8_" gradientUnits="userSpaceOnUse" x1="-695.2628" y1="782.4482" x2="-695.2628" y2="781.0224" gradientTransform="matrix(63.8 0 0 -45.2 44653.3867 35464.207)">
				<stop  offset="0" style="stop-color:#FFFFFF"/>
				<stop  offset="1" style="stop-color:#000000"/>
			</linearGradient>
			<path class="st15" d="M341.1,162h-51.5c-6.6-10.7-13.3-21.5-19.8-32.2c-6.6-10.7-13.1-21.5-19.7-32.2h51.5
				c6.6,10.7,13.1,21.5,19.7,32.2C328,140.6,334.5,151.3,341.1,162z"/>
		</g>
	</mask>
	
		<linearGradient id="SVGID_9_" gradientUnits="userSpaceOnUse" x1="-695.2628" y1="782.4482" x2="-695.2628" y2="781.0224" gradientTransform="matrix(63.8 0 0 -45.2 44653.3867 35464.207)">
		<stop  offset="0" style="stop-color:#FFED01"/>
		<stop  offset="1" style="stop-color:#FFED01"/>
	</linearGradient>
	<path class="st16" d="M341.1,162h-51.5c-6.6-10.7-13.3-21.5-19.8-32.2c-6.6-10.7-13.1-21.5-19.7-32.2h51.5
		c6.6,10.7,13.1,21.5,19.7,32.2C328,140.6,334.5,151.3,341.1,162z"/>
	<path class="st17" d="M371.5,97.5H320c10.1,16.7,20.2,33.2,30.4,49.8c10.1,16.5,20.4,33.1,30.5,49.6
		c-10.1,16.5-20.4,33.2-30.5,49.8c-10.1,16.5-20.2,33.1-30.5,49.6h51.5c10.1-16.5,20.2-33.1,30.5-49.6
		c10.1-16.5,20.2-33.1,30.5-49.8c-10.1-16.5-20.2-33.1-30.5-49.6C391.9,130.8,381.6,114.2,371.5,97.5z"/>
	<defs>
		<filter id="Adobe_OpacityMaskFilter_6_" filterUnits="userSpaceOnUse" x="320" y="97.5" width="91" height="64.4">
			<feFlood  style="flood-color:white;flood-opacity:1" result="back"/>
			<feBlend  in="SourceGraphic" in2="back" mode="normal"/>
		</filter>
	</defs>
	<mask maskUnits="userSpaceOnUse" x="320" y="97.5" width="91" height="64.4" id="SVGID_10_">
		<g id="XMLID_15_" class="st18">
			<defs>
				<filter id="Adobe_OpacityMaskFilter_7_" filterUnits="userSpaceOnUse" x="320" y="97.5" width="91" height="64.4">
					<feFlood  style="flood-color:white;flood-opacity:1" result="back"/>
					<feBlend  in="SourceGraphic" in2="back" mode="normal"/>
				</filter>
			</defs>
			<mask maskUnits="userSpaceOnUse" x="320" y="97.5" width="91" height="64.4" id="SVGID_10_">
				<g id="XMLID_20_" class="st19">
				</g>
			</mask>
			
				<linearGradient id="SVGID_11_" gradientUnits="userSpaceOnUse" x1="-694.9357" y1="782.4482" x2="-694.9357" y2="781.0224" gradientTransform="matrix(63.8 0 0 -45.2 44702.3867 35464.207)">
				<stop  offset="0" style="stop-color:#FFFFFF"/>
				<stop  offset="1" style="stop-color:#000000"/>
			</linearGradient>
			<path class="st20" d="M411,162h-51.5c-6.7-10.7-13.3-21.5-19.8-32.2c-6.6-10.7-13.1-21.5-19.7-32.2h51.5
				c6.6,10.7,13.1,21.5,19.7,32.2C397.7,140.6,404.4,151.3,411,162z"/>
		</g>
	</mask>
	
		<linearGradient id="SVGID_12_" gradientUnits="userSpaceOnUse" x1="-694.9357" y1="782.4482" x2="-694.9357" y2="781.0224" gradientTransform="matrix(63.8 0 0 -45.2 44702.3867 35464.207)">
		<stop  offset="0" style="stop-color:#E02A89"/>
		<stop  offset="1" style="stop-color:#E02A89"/>
	</linearGradient>
	<path class="st21" d="M411,162h-51.5c-6.7-10.7-13.3-21.5-19.8-32.2c-6.6-10.7-13.1-21.5-19.7-32.2h51.5
		c6.6,10.7,13.1,21.5,19.7,32.2C397.7,140.6,404.4,151.3,411,162z"/>
	<defs>
		<filter id="Adobe_OpacityMaskFilter_8_" filterUnits="userSpaceOnUse" x="341.5" y="197.1" width="91" height="64.4">
			<feFlood  style="flood-color:white;flood-opacity:1" result="back"/>
			<feBlend  in="SourceGraphic" in2="back" mode="normal"/>
		</filter>
	</defs>
	<mask maskUnits="userSpaceOnUse" x="341.5" y="197.1" width="91" height="64.4" id="SVGID_13_">
		<g id="XMLID_17_" class="st22">
			<defs>
				<filter id="Adobe_OpacityMaskFilter_9_" filterUnits="userSpaceOnUse" x="341.5" y="197.1" width="91" height="64.4">
					<feFlood  style="flood-color:white;flood-opacity:1" result="back"/>
					<feBlend  in="SourceGraphic" in2="back" mode="normal"/>
				</filter>
			</defs>
			<mask maskUnits="userSpaceOnUse" x="341.5" y="197.1" width="91" height="64.4" id="SVGID_13_">
				<g id="XMLID_22_" class="st23">
				</g>
			</mask>
			
				<linearGradient id="SVGID_14_" gradientUnits="userSpaceOnUse" x1="-694.8333" y1="781.79" x2="-694.8333" y2="780.3642" gradientTransform="matrix(63.8 0 0 -45.2 44717.3789 35533.9727)">
				<stop  offset="0" style="stop-color:#FFFFFF"/>
				<stop  offset="1" style="stop-color:#000000"/>
			</linearGradient>
			<path class="st24" d="M341.5,261.5H393c6.6-10.7,13.1-21.4,19.7-32.2c6.6-10.7,13.1-21.5,19.8-32.2h-51.6
				c-6.6,10.7-13.1,21.5-19.7,32.2C354.7,240,348.1,250.7,341.5,261.5z"/>
		</g>
	</mask>
	
		<linearGradient id="SVGID_15_" gradientUnits="userSpaceOnUse" x1="-694.8333" y1="781.79" x2="-694.8333" y2="780.3642" gradientTransform="matrix(63.8 0 0 -45.2 44717.3789 35533.9727)">
		<stop  offset="0" style="stop-color:#7F1E4F"/>
		<stop  offset="1" style="stop-color:#7F1E4F"/>
	</linearGradient>
	<path class="st25" d="M341.5,261.5H393c6.6-10.7,13.1-21.4,19.7-32.2c6.6-10.7,13.1-21.5,19.8-32.2h-51.6
		c-6.6,10.7-13.1,21.5-19.7,32.2C354.7,240,348.1,250.7,341.5,261.5z"/>
	<defs>
		<filter id="Adobe_OpacityMaskFilter_10_" filterUnits="userSpaceOnUse" x="271.7" y="197.1" width="91" height="64.4">
			<feFlood  style="flood-color:white;flood-opacity:1" result="back"/>
			<feBlend  in="SourceGraphic" in2="back" mode="normal"/>
		</filter>
	</defs>
	<mask maskUnits="userSpaceOnUse" x="271.7" y="197.1" width="91" height="64.4" id="SVGID_16_">
		<g id="XMLID_19_" class="st26">
			<defs>
				<filter id="Adobe_OpacityMaskFilter_11_" filterUnits="userSpaceOnUse" x="271.7" y="197.1" width="91" height="64.4">
					<feFlood  style="flood-color:white;flood-opacity:1" result="back"/>
					<feBlend  in="SourceGraphic" in2="back" mode="normal"/>
				</filter>
			</defs>
			<mask maskUnits="userSpaceOnUse" x="271.7" y="197.1" width="91" height="64.4" id="SVGID_16_">
				<g id="XMLID_24_" class="st27">
				</g>
			</mask>
			
				<linearGradient id="SVGID_17_" gradientUnits="userSpaceOnUse" x1="-695.1602" y1="781.79" x2="-695.1602" y2="780.3642" gradientTransform="matrix(63.8 0 0 -45.2 44668.3789 35533.9727)">
				<stop  offset="0" style="stop-color:#FFFFFF"/>
				<stop  offset="1" style="stop-color:#000000"/>
			</linearGradient>
			<path class="st28" d="M271.7,261.5h51.5c6.6-10.7,13.1-21.5,19.7-32.2c6.6-10.7,13.1-21.5,19.8-32.2h-51.5
				c-6.6,10.7-13.1,21.5-19.7,32.2C284.8,240,278.2,250.7,271.7,261.5z"/>
		</g>
	</mask>
	
		<linearGradient id="SVGID_18_" gradientUnits="userSpaceOnUse" x1="-695.1602" y1="781.79" x2="-695.1602" y2="780.3642" gradientTransform="matrix(63.8 0 0 -45.2 44668.3789 35533.9727)">
		<stop  offset="0" style="stop-color:#E95506"/>
		<stop  offset="1" style="stop-color:#E95506"/>
	</linearGradient>
	<path class="st29" d="M271.7,261.5h51.5c6.6-10.7,13.1-21.5,19.7-32.2c6.6-10.7,13.1-21.5,19.8-32.2h-51.5
		c-6.6,10.7-13.1,21.5-19.7,32.2C284.8,240,278.2,250.7,271.7,261.5z"/>
	<defs>
		<filter id="Adobe_OpacityMaskFilter_12_" filterUnits="userSpaceOnUse" x="67.5" y="132.6" width="91" height="64.4">
			<feFlood  style="flood-color:white;flood-opacity:1" result="back"/>
			<feBlend  in="SourceGraphic" in2="back" mode="normal"/>
		</filter>
	</defs>
	<mask maskUnits="userSpaceOnUse" x="67.5" y="132.6" width="91" height="64.4" id="SVGID_19_">
		<g id="XMLID_21_" class="st30">
			<defs>
				<filter id="Adobe_OpacityMaskFilter_13_" filterUnits="userSpaceOnUse" x="67.5" y="132.6" width="91" height="64.4">
					<feFlood  style="flood-color:white;flood-opacity:1" result="back"/>
					<feBlend  in="SourceGraphic" in2="back" mode="normal"/>
				</filter>
			</defs>
			<mask maskUnits="userSpaceOnUse" x="67.5" y="132.6" width="91" height="64.4" id="SVGID_19_">
				<g id="XMLID_26_" class="st31">
				</g>
			</mask>
			
				<linearGradient id="SVGID_20_" gradientUnits="userSpaceOnUse" x1="-696.1163" y1="780.7914" x2="-696.1163" y2="782.2172" gradientTransform="matrix(63.8 0 0 -45.2 44525.207 35488.8398)">
				<stop  offset="0" style="stop-color:#FFFFFF"/>
				<stop  offset="1" style="stop-color:#000000"/>
			</linearGradient>
			<path class="st32" d="M158.5,132.6H107c-6.6,10.7-13.1,21.5-19.7,32.2c-6.7,10.7-13.3,21.5-19.8,32.2H119
				c6.6-10.7,13.1-21.4,19.7-32.2C145.2,154.2,151.8,143.3,158.5,132.6z"/>
		</g>
	</mask>
	
		<linearGradient id="SVGID_21_" gradientUnits="userSpaceOnUse" x1="-696.1163" y1="780.7914" x2="-696.1163" y2="782.2172" gradientTransform="matrix(63.8 0 0 -45.2 44525.207 35488.8398)">
		<stop  offset="0" style="stop-color:#88D0F1"/>
		<stop  offset="1" style="stop-color:#88D0F1"/>
	</linearGradient>
	<path class="st33" d="M158.5,132.6H107c-6.6,10.7-13.1,21.5-19.7,32.2c-6.7,10.7-13.3,21.5-19.8,32.2H119
		c6.6-10.7,13.1-21.4,19.7-32.2C145.2,154.2,151.8,143.3,158.5,132.6z"/>
	<defs>
		<filter id="Adobe_OpacityMaskFilter_14_" filterUnits="userSpaceOnUse" x="88.9" y="97.5" width="91" height="64.4">
			<feFlood  style="flood-color:white;flood-opacity:1" result="back"/>
			<feBlend  in="SourceGraphic" in2="back" mode="normal"/>
		</filter>
	</defs>
	<mask maskUnits="userSpaceOnUse" x="88.9" y="97.5" width="91" height="64.4" id="SVGID_22_">
		<g id="XMLID_23_" class="st34">
			<defs>
				<filter id="Adobe_OpacityMaskFilter_15_" filterUnits="userSpaceOnUse" x="88.9" y="97.5" width="91" height="64.4">
					<feFlood  style="flood-color:white;flood-opacity:1" result="back"/>
					<feBlend  in="SourceGraphic" in2="back" mode="normal"/>
				</filter>
			</defs>
			<mask maskUnits="userSpaceOnUse" x="88.9" y="97.5" width="91" height="64.4" id="SVGID_22_">
				<g id="XMLID_28_" class="st35">
				</g>
			</mask>
			
				<linearGradient id="SVGID_23_" gradientUnits="userSpaceOnUse" x1="-696.0158" y1="782.4482" x2="-696.0158" y2="781.0224" gradientTransform="matrix(63.8 0 0 -45.2 44540.1797 35464.207)">
				<stop  offset="0" style="stop-color:#FFFFFF"/>
				<stop  offset="0.8325" style="stop-color:#000000"/>
			</linearGradient>
			<path class="st36" d="M88.9,162h51.5c6.6-10.7,13.1-21.5,19.7-32.2c6.7-10.7,13.3-21.5,19.8-32.2h-51.5
				c-6.6,10.7-13.1,21.4-19.7,32.2C102.1,140.5,95.6,151.3,88.9,162z"/>
		</g>
	</mask>
	
		<linearGradient id="SVGID_24_" gradientUnits="userSpaceOnUse" x1="-696.0158" y1="782.4482" x2="-696.0158" y2="781.0224" gradientTransform="matrix(63.8 0 0 -45.2 44540.1797 35464.207)">
		<stop  offset="0" style="stop-color:#00828B"/>
		<stop  offset="0.8325" style="stop-color:#00828B"/>
	</linearGradient>
	<path class="st37" d="M88.9,162h51.5c6.6-10.7,13.1-21.5,19.7-32.2c6.7-10.7,13.3-21.5,19.8-32.2h-51.5
		c-6.6,10.7-13.1,21.4-19.7,32.2C102.1,140.5,95.6,151.3,88.9,162z"/>
	<defs>
		<filter id="Adobe_OpacityMaskFilter_16_" filterUnits="userSpaceOnUse" x="88.9" y="232" width="90.8" height="64.4">
			<feFlood  style="flood-color:white;flood-opacity:1" result="back"/>
			<feBlend  in="SourceGraphic" in2="back" mode="normal"/>
		</filter>
	</defs>
	<mask maskUnits="userSpaceOnUse" x="88.9" y="232" width="90.8" height="64.4" id="SVGID_25_">
		<g id="XMLID_25_" class="st38">
			<defs>
				<filter id="Adobe_OpacityMaskFilter_17_" filterUnits="userSpaceOnUse" x="88.9" y="232" width="90.8" height="64.4">
					<feFlood  style="flood-color:white;flood-opacity:1" result="back"/>
					<feBlend  in="SourceGraphic" in2="back" mode="normal"/>
				</filter>
			</defs>
			<mask maskUnits="userSpaceOnUse" x="88.9" y="232" width="90.8" height="64.4" id="SVGID_25_">
				<g id="XMLID_30_" class="st39">
				</g>
			</mask>
			
				<linearGradient id="SVGID_26_" gradientUnits="userSpaceOnUse" x1="-695.9973" y1="780.1334" x2="-695.9973" y2="781.5591" gradientTransform="matrix(63.7 0 0 -45.2 44469.3203 35558.4727)">
				<stop  offset="0" style="stop-color:#FFFFFF"/>
				<stop  offset="1" style="stop-color:#000000"/>
			</linearGradient>
			<path class="st40" d="M88.9,232h51.5c6.6,10.7,13.1,21.5,19.7,32.2c6.6,10.7,13.1,21.5,19.7,32.2h-51.5
				c-6.6-10.7-13.3-21.4-19.8-32.2C102,253.5,95.4,242.8,88.9,232z"/>
		</g>
	</mask>
	
		<linearGradient id="SVGID_27_" gradientUnits="userSpaceOnUse" x1="-695.9973" y1="780.1334" x2="-695.9973" y2="781.5591" gradientTransform="matrix(63.7 0 0 -45.2 44469.3203 35558.4727)">
		<stop  offset="0" style="stop-color:#2073BA"/>
		<stop  offset="1" style="stop-color:#2073BA"/>
	</linearGradient>
	<path class="st41" d="M88.9,232h51.5c6.6,10.7,13.1,21.5,19.7,32.2c6.6,10.7,13.1,21.5,19.7,32.2h-51.5
		c-6.6-10.7-13.3-21.4-19.8-32.2C102,253.5,95.4,242.8,88.9,232z"/>
	<defs>
		<filter id="Adobe_OpacityMaskFilter_18_" filterUnits="userSpaceOnUse" x="128.4" y="97.5" width="91" height="64.4">
			<feFlood  style="flood-color:white;flood-opacity:1" result="back"/>
			<feBlend  in="SourceGraphic" in2="back" mode="normal"/>
		</filter>
	</defs>
	<mask maskUnits="userSpaceOnUse" x="128.4" y="97.5" width="91" height="64.4" id="SVGID_28_">
		<g id="XMLID_27_" class="st42">
			<defs>
				<filter id="Adobe_OpacityMaskFilter_19_" filterUnits="userSpaceOnUse" x="128.4" y="97.5" width="91" height="64.4">
					<feFlood  style="flood-color:white;flood-opacity:1" result="back"/>
					<feBlend  in="SourceGraphic" in2="back" mode="normal"/>
				</filter>
			</defs>
			<mask maskUnits="userSpaceOnUse" x="128.4" y="97.5" width="91" height="64.4" id="SVGID_28_">
				<g id="XMLID_32_" class="st43">
				</g>
			</mask>
			
				<linearGradient id="SVGID_29_" gradientUnits="userSpaceOnUse" x1="-695.8314" y1="782.4482" x2="-695.8314" y2="781.0224" gradientTransform="matrix(63.8 0 0 -45.2 44567.9063 35464.207)">
				<stop  offset="0" style="stop-color:#FFFFFF"/>
				<stop  offset="1" style="stop-color:#000000"/>
			</linearGradient>
			<path class="st44" d="M219.3,162h-51.5c-6.6-10.7-13.1-21.5-19.7-32.2c-6.7-10.7-13.3-21.5-19.8-32.2h51.5
				c6.6,10.7,13.1,21.4,19.7,32.2C206.2,140.5,212.8,151.3,219.3,162z"/>
		</g>
	</mask>
	
		<linearGradient id="SVGID_30_" gradientUnits="userSpaceOnUse" x1="-695.8314" y1="782.4482" x2="-695.8314" y2="781.0224" gradientTransform="matrix(63.8 0 0 -45.2 44567.9063 35464.207)">
		<stop  offset="0" style="stop-color:#8ED0E1"/>
		<stop  offset="1" style="stop-color:#88D0F1"/>
	</linearGradient>
	<path class="st45" d="M219.3,162h-51.5c-6.6-10.7-13.1-21.5-19.7-32.2c-6.7-10.7-13.3-21.5-19.8-32.2h51.5
		c6.6,10.7,13.1,21.4,19.7,32.2C206.2,140.5,212.8,151.3,219.3,162z"/>
</g>
</svg>
